<mxfile host="Electron" modified="2024-01-29T03:15:52.489Z" agent="Mozilla/5.0 (Macintosh; Intel Mac OS X 10_15_7) AppleWebKit/537.36 (KHTML, like Gecko) draw.io/23.0.2 Chrome/120.0.6099.109 Electron/28.1.0 Safari/537.36" etag="r-WE4RuqdKuSuUwzouCR" version="23.0.2" type="device">
  <diagram name="Page-1" id="YFpQOV1or4LZNPKmYMZV">
    <mxGraphModel dx="984" dy="718" grid="1" gridSize="10" guides="1" tooltips="1" connect="1" arrows="1" fold="1" page="1" pageScale="1" pageWidth="800" pageHeight="819" math="0" shadow="0">
      <root>
        <mxCell id="0" />
        <mxCell id="1" parent="0" />
        <mxCell id="76HxOOz6ZaxpgkXnv3cC-6" style="edgeStyle=orthogonalEdgeStyle;rounded=0;orthogonalLoop=1;jettySize=auto;html=1;exitX=1;exitY=0.5;exitDx=0;exitDy=0;entryX=0;entryY=0.5;entryDx=0;entryDy=0;" parent="1" source="76HxOOz6ZaxpgkXnv3cC-1" target="76HxOOz6ZaxpgkXnv3cC-2" edge="1">
          <mxGeometry relative="1" as="geometry" />
        </mxCell>
        <mxCell id="rFo0jHRpVB_ov9sb0lzf-3" style="edgeStyle=orthogonalEdgeStyle;rounded=0;orthogonalLoop=1;jettySize=auto;html=1;entryX=0;entryY=0.5;entryDx=0;entryDy=0;" parent="1" source="76HxOOz6ZaxpgkXnv3cC-1" target="rFo0jHRpVB_ov9sb0lzf-1" edge="1">
          <mxGeometry relative="1" as="geometry">
            <Array as="points">
              <mxPoint x="120" y="690" />
            </Array>
          </mxGeometry>
        </mxCell>
        <mxCell id="rFo0jHRpVB_ov9sb0lzf-4" style="edgeStyle=orthogonalEdgeStyle;rounded=0;orthogonalLoop=1;jettySize=auto;html=1;exitX=0.5;exitY=1;exitDx=0;exitDy=0;entryX=0;entryY=0.5;entryDx=0;entryDy=0;" parent="1" source="76HxOOz6ZaxpgkXnv3cC-1" target="76HxOOz6ZaxpgkXnv3cC-15" edge="1">
          <mxGeometry relative="1" as="geometry" />
        </mxCell>
        <mxCell id="76HxOOz6ZaxpgkXnv3cC-1" value="Evaluation" style="rhombus;whiteSpace=wrap;html=1;fontFamily=Courier New;fontSize=12;fillColor=#647687;strokeColor=#314354;fontColor=#ffffff;rounded=0;" parent="1" vertex="1">
          <mxGeometry x="50" y="344" width="140" height="140" as="geometry" />
        </mxCell>
        <mxCell id="76HxOOz6ZaxpgkXnv3cC-7" style="edgeStyle=orthogonalEdgeStyle;rounded=0;orthogonalLoop=1;jettySize=auto;html=1;exitX=1;exitY=0.5;exitDx=0;exitDy=0;entryX=0;entryY=0.5;entryDx=0;entryDy=0;" parent="1" source="76HxOOz6ZaxpgkXnv3cC-2" target="76HxOOz6ZaxpgkXnv3cC-3" edge="1">
          <mxGeometry relative="1" as="geometry" />
        </mxCell>
        <mxCell id="76HxOOz6ZaxpgkXnv3cC-2" value="Reproduction" style="rounded=1;whiteSpace=wrap;html=1;fontFamily=Courier New;fontSize=12;fillColor=#6d8764;fontColor=#ffffff;strokeColor=#3A5431;" parent="1" vertex="1">
          <mxGeometry x="270" y="384" width="120" height="60" as="geometry" />
        </mxCell>
        <mxCell id="76HxOOz6ZaxpgkXnv3cC-8" value="YES" style="edgeStyle=orthogonalEdgeStyle;rounded=0;orthogonalLoop=1;jettySize=auto;html=1;exitX=0.5;exitY=0;exitDx=0;exitDy=0;entryX=0.5;entryY=1;entryDx=0;entryDy=0;fontFamily=Courier New;" parent="1" source="76HxOOz6ZaxpgkXnv3cC-3" target="76HxOOz6ZaxpgkXnv3cC-4" edge="1">
          <mxGeometry x="-0.7143" relative="1" as="geometry">
            <mxPoint as="offset" />
          </mxGeometry>
        </mxCell>
        <mxCell id="76HxOOz6ZaxpgkXnv3cC-11" value="NO" style="edgeStyle=orthogonalEdgeStyle;rounded=0;orthogonalLoop=1;jettySize=auto;html=1;exitX=1;exitY=0.5;exitDx=0;exitDy=0;entryX=0.5;entryY=1;entryDx=0;entryDy=0;fontFamily=Courier New;" parent="1" source="76HxOOz6ZaxpgkXnv3cC-3" target="76HxOOz6ZaxpgkXnv3cC-5" edge="1">
          <mxGeometry x="-0.7807" relative="1" as="geometry">
            <mxPoint x="-1" as="offset" />
          </mxGeometry>
        </mxCell>
        <mxCell id="76HxOOz6ZaxpgkXnv3cC-3" value="Partnered?" style="rhombus;whiteSpace=wrap;html=1;fontFamily=Courier New;fontSize=12;fillColor=#647687;fontColor=#ffffff;strokeColor=#314354;" parent="1" vertex="1">
          <mxGeometry x="460" y="360" width="105" height="106" as="geometry" />
        </mxCell>
        <mxCell id="76HxOOz6ZaxpgkXnv3cC-4" value="Mating" style="ellipse;whiteSpace=wrap;html=1;fontFamily=Courier New;fontSize=12;fillColor=#76608a;fontColor=#ffffff;strokeColor=#432D57;" parent="1" vertex="1">
          <mxGeometry x="452.5" y="210" width="120" height="80" as="geometry" />
        </mxCell>
        <mxCell id="76HxOOz6ZaxpgkXnv3cC-5" value="Dating" style="ellipse;whiteSpace=wrap;html=1;fontFamily=Courier New;fontSize=12;fillColor=#76608a;fontColor=#ffffff;strokeColor=#432D57;" parent="1" vertex="1">
          <mxGeometry x="610" y="210" width="120" height="80" as="geometry" />
        </mxCell>
        <mxCell id="76HxOOz6ZaxpgkXnv3cC-12" value="EVENT" style="ellipse;whiteSpace=wrap;html=1;fontFamily=Courier New;fontSize=12;fillColor=#76608a;fontColor=#ffffff;strokeColor=#432D57;" parent="1" vertex="1">
          <mxGeometry x="690" y="15" width="70" height="50" as="geometry" />
        </mxCell>
        <mxCell id="76HxOOz6ZaxpgkXnv3cC-13" value="CHOICE" style="rhombus;whiteSpace=wrap;html=1;fontFamily=Courier New;fontSize=12;fillColor=#647687;fontColor=#ffffff;strokeColor=#314354;" parent="1" vertex="1">
          <mxGeometry x="610" y="10" width="60" height="60" as="geometry" />
        </mxCell>
        <mxCell id="76HxOOz6ZaxpgkXnv3cC-14" value="STRATEGY" style="rounded=1;whiteSpace=wrap;html=1;fontFamily=Courier New;fontSize=12;fillColor=#6d8764;fontColor=#ffffff;strokeColor=#3A5431;" parent="1" vertex="1">
          <mxGeometry x="510" y="20" width="80" height="40" as="geometry" />
        </mxCell>
        <mxCell id="76HxOOz6ZaxpgkXnv3cC-19" style="edgeStyle=orthogonalEdgeStyle;rounded=0;orthogonalLoop=1;jettySize=auto;html=1;exitX=1;exitY=0.5;exitDx=0;exitDy=0;" parent="1" source="76HxOOz6ZaxpgkXnv3cC-15" target="76HxOOz6ZaxpgkXnv3cC-18" edge="1">
          <mxGeometry relative="1" as="geometry" />
        </mxCell>
        <mxCell id="76HxOOz6ZaxpgkXnv3cC-15" value="Working" style="rounded=1;whiteSpace=wrap;html=1;fontFamily=Courier New;fontSize=12;fillColor=#6d8764;fontColor=#ffffff;strokeColor=#3A5431;" parent="1" vertex="1">
          <mxGeometry x="270" y="520" width="120" height="60" as="geometry" />
        </mxCell>
        <mxCell id="76HxOOz6ZaxpgkXnv3cC-18" value="Working" style="ellipse;whiteSpace=wrap;html=1;fontFamily=Courier New;fontSize=12;fillColor=#76608a;fontColor=#ffffff;strokeColor=#432D57;" parent="1" vertex="1">
          <mxGeometry x="610" y="510" width="120" height="80" as="geometry" />
        </mxCell>
        <mxCell id="76HxOOz6ZaxpgkXnv3cC-20" value="&lt;h1 style=&quot;font-size: 26px;&quot;&gt;Glipsim v0.01&lt;/h1&gt;&lt;div style=&quot;&quot;&gt;&lt;font style=&quot;font-size: 22px;&quot;&gt;Decision tree for evaluation phase&lt;/font&gt;&lt;/div&gt;" style="text;html=1;strokeColor=none;fillColor=none;spacing=5;spacingTop=-20;whiteSpace=wrap;overflow=hidden;rounded=0;fontSize=26;" parent="1" vertex="1">
          <mxGeometry x="50" y="15" width="500" height="140" as="geometry" />
        </mxCell>
        <mxCell id="rFo0jHRpVB_ov9sb0lzf-6" style="edgeStyle=orthogonalEdgeStyle;rounded=0;orthogonalLoop=1;jettySize=auto;html=1;exitX=1;exitY=0.5;exitDx=0;exitDy=0;entryX=0;entryY=0.5;entryDx=0;entryDy=0;" parent="1" source="rFo0jHRpVB_ov9sb0lzf-1" target="rFo0jHRpVB_ov9sb0lzf-5" edge="1">
          <mxGeometry relative="1" as="geometry" />
        </mxCell>
        <mxCell id="rFo0jHRpVB_ov9sb0lzf-1" value="Idle" style="rounded=1;whiteSpace=wrap;html=1;fontFamily=Courier New;fontSize=12;fillColor=#6d8764;fontColor=#ffffff;strokeColor=#3A5431;" parent="1" vertex="1">
          <mxGeometry x="270" y="660" width="120" height="60" as="geometry" />
        </mxCell>
        <mxCell id="rFo0jHRpVB_ov9sb0lzf-5" value="Idleing" style="ellipse;whiteSpace=wrap;html=1;fontFamily=Courier New;fontSize=12;fillColor=#76608a;fontColor=#ffffff;strokeColor=#432D57;" parent="1" vertex="1">
          <mxGeometry x="610" y="650" width="120" height="80" as="geometry" />
        </mxCell>
      </root>
    </mxGraphModel>
  </diagram>
</mxfile>
